<svg xmlns="http://www.w3.org/2000/svg" height="800" width="1200" viewBox="-29.21025 -8.94375 253.1555 53.6625"><path d="M40.664 21.852c0 2.043-1.661 3.703-3.702 3.703-2.042 0-3.703-1.66-3.703-3.703v-4.427c0-2.041 1.661-3.702 3.703-3.702 2.041 0 3.702 1.661 3.702 3.702zm1.345-4.427c0-2.783-2.265-5.047-5.047-5.047-2.783 0-5.047 2.264-5.047 5.047v4.427c0 2.783 2.264 5.047 5.047 5.047 2.782 0 5.047-2.264 5.047-5.047z" fill="#A8AEB5"/><path d="M80.924 20.807c0 2.617-2.247 4.748-5.014 4.748-2.764 0-5.014-2.131-5.014-4.748v-5.484c0-2.617 2.25-4.748 5.014-4.748 2.767 0 5.014 2.131 5.014 4.748zm1.345-5.484c0-3.359-2.852-6.092-6.358-6.092-3.505 0-6.357 2.732-6.357 6.092v5.484c0 3.359 2.853 6.092 6.357 6.092 3.507 0 6.358-2.732 6.358-6.092zm-16.87 9.158c-.825.674-1.837 1.074-2.931 1.074-2.766 0-5.015-2.531-5.015-5.641v-6.386c0-3.109 2.249-5.639 5.015-5.639 1.139 0 2.186.433 3.028 1.154.446-.225.926-.391 1.43-.487-1.148-1.243-2.722-2.012-4.458-2.012-3.506 0-6.358 3.133-6.358 6.983v6.386c0 3.85 2.853 6.984 6.358 6.984 1.682 0 3.211-.727 4.349-1.904-.502-.104-.976-.28-1.418-.512zm38.014-15.25c-2.488 0-4.643 1.381-5.687 3.382-1.043-2.001-3.196-3.382-5.686-3.382-2.037 0-3.849.926-5.015 2.359V9.231h-1.344v17.668h1.344V15.323c0-2.617 2.25-4.748 5.015-4.748 2.765 0 5.014 2.131 5.014 4.748v11.576h1.345V15.323c0-2.617 2.248-4.748 5.014-4.748 2.765 0 5.015 2.131 5.015 4.748v11.576h1.345V15.323c-.001-3.359-2.854-6.092-6.36-6.092zm26.885 0c-2.489 0-4.643 1.381-5.687 3.382-1.042-2.001-3.196-3.382-5.687-3.382-2.038 0-3.851.926-5.015 2.359V9.231h-1.343v17.668h1.343V15.323c0-2.617 2.25-4.748 5.015-4.748 2.766 0 5.015 2.131 5.015 4.748v11.576h1.345V15.323c0-2.617 2.248-4.748 5.014-4.748 2.765 0 5.014 2.131 5.014 4.748v11.576h1.345V15.323c-.001-3.359-2.852-6.092-6.359-6.092zm22.757 5.919c.005-.165.009-.329.009-.506 0-.054-.032-.134-.078-.227-.436-2.778-2.826-4.944-5.787-5.163-.076-.025-.156-.057-.226-.072v.061c-.09-.003-.177-.012-.268-.012-3.506 0-6.357 2.732-6.357 6.092v5.484c0 3.359 2.852 6.092 6.357 6.092 1.519 0 3.11-.777 4.039-1.285-.324-.314-.593-.682-.808-1.092-.698.35-1.894 1.033-3.231 1.033-2.765 0-5.014-2.131-5.014-4.748v-1.596h7.073c3.13 0 4.158-.925 4.284-3.888h.015c0-.058-.007-.115-.008-.173zm-4.29 2.716h-7.073v-2.543c0-2.617 2.249-4.748 5.014-4.748 2.722 0 4.938 2.064 5.008 4.624-.055 2.271-.52 2.667-2.949 2.667zm45.96-2.716c.004-.165.01-.329.01-.506 0-.054-.034-.134-.078-.227-.437-2.778-2.827-4.944-5.788-5.163-.075-.025-.156-.057-.226-.072v.061c-.09-.003-.177-.012-.267-.012-3.507 0-6.358 2.732-6.358 6.092v5.484c0 3.359 2.852 6.092 6.358 6.092 1.518 0 3.11-.777 4.037-1.285-.322-.314-.592-.682-.807-1.092-.697.35-1.893 1.033-3.23 1.033-2.765 0-5.016-2.131-5.016-4.748v-1.596h7.075c3.13 0 4.158-.925 4.283-3.888h.016c0-.058-.008-.115-.009-.173zm-4.289 2.716h-7.075v-2.543c0-2.617 2.251-4.748 5.016-4.748 2.721 0 4.937 2.064 5.007 4.624-.054 2.271-.52 2.667-2.948 2.667zm-13.067 6.818c-.815.547-1.81.871-2.883.871-2.766 0-5.016-2.131-5.016-4.748v-5.484c0-2.617 2.25-4.748 5.016-4.748 1.176 0 2.255.389 3.113 1.032.354-.298.739-.56 1.142-.798-1.128-.977-2.617-1.578-4.255-1.578-3.505 0-6.358 2.732-6.358 6.092v5.484c0 3.359 2.854 6.092 6.358 6.092 1.516 0 2.907-.512 4-1.365-.396-.252-.767-.537-1.117-.85zM162.837 9.231c-2.038 0-3.85.926-5.016 2.359V9.231h-1.344v17.668h1.344V15.323c0-2.617 2.249-4.748 5.016-4.748 1.176 0 2.256.389 3.112 1.032.355-.298.74-.56 1.142-.798-1.127-.976-2.617-1.578-4.254-1.578z" fill="#231F20"/><path d="M53.335 22.723c0-.689-.339-1.154-.59-1.645-.252-.49-1.048-1.178-2.121-1.543-1.117-.381-.394-.137-2.08-.643-1.906-.612-2.099-.851-2.209-.93-.505-.372-.737-1.209-.737-1.856 0-.619.245-1.134.707-1.54.645-.507 1.46-.844 2.307-.844 1.154 0 2.175.542 2.854 1.374h1.619a5.0454 5.0454 0 00-4.065-2.689c-.005 0-.012 0-.015-.001-.132-.011-.26-.028-.393-.028-.029 0-.057.006-.085.007-.045-.001-.09-.007-.135-.007-1.349 0-2.287.482-3.031 1.194-.465.443-1.042 1.512-1.048 1.524h.01c-.036.103-.194.832-.194 1.124 0 .659.136 1.252.404 1.763.268.509.651.919 1.135 1.224.51.318 1.564.721 3.135 1.193 1.157.344 1.878.625 2.203.871.511.387.971.932.971 1.619 0 .348-.11.666-.27.959-.544.842-1.411 1.447-2.431 1.637-.2.025-.412.043-.636.043-.447 0-.852-.066-1.222-.184a3.3314 3.3314 0 01-.254-.096c-.056-.023-.109-.051-.163-.076-.119-.059-.237-.121-.349-.191-.132-.086-.262-.174-.378-.279-.017-.016-.035-.023-.053-.039a3.7527 3.7527 0 01-.924-1.193h-1.462c.48 1.412 1.575 2.535 2.959 3.074.045.02.089.039.135.059.164.059.335.1.506.139.078.02.146.045.229.057.308.059.622.1.947.1.446 0 .873-.072 1.284-.182.835-.18 1.543-.52 2.094-1.043.623-.598 1.214-1.445 1.336-2.033.057-.391.01-.597.01-.919zm18.709 8.758c0-.934.251-1.666.754-2.195.501-.529 1.149-.793 1.945-.793.521 0 .988.125 1.407.373.417.248.735.594.955 1.039.218.443.329.947.329 1.51 0 .572-.115 1.082-.347 1.533-.23.451-.557.791-.979 1.023-.424.232-.88.348-1.37.348-.53 0-1.004-.129-1.422-.383-.418-.258-.734-.607-.949-1.049-.216-.443-.323-.912-.323-1.406zm.769.016c0 .68.183 1.215.547 1.605.365.391.823.586 1.375.586.561 0 1.022-.195 1.385-.592.362-.395.544-.953.544-1.68 0-.457-.076-.859-.232-1.201-.155-.342-.382-.607-.681-.797-.299-.188-.633-.281-1.005-.281-.528 0-.981.182-1.362.545-.38.361-.571.967-.571 1.815zm5.48 4.277v-5.629h.63v.543c.149-.209.316-.367.504-.469.187-.104.413-.158.68-.158.349 0 .656.092.922.27.266.178.469.428.604.754.136.326.204.68.204 1.066 0 .416-.076.791-.227 1.123-.151.332-.367.588-.652.764-.287.178-.588.268-.904.268-.231 0-.438-.051-.62-.148-.185-.098-.335-.221-.453-.371v1.988h-.688zm.616-3.57c0 .52.106.904.32 1.152.212.25.471.375.773.375.307 0 .57-.131.79-.387.218-.258.329-.658.329-1.195 0-.516-.108-.902-.322-1.156-.214-.258-.47-.385-.768-.385-.295 0-.556.135-.783.41-.226.272-.339.666-.339 1.186zm6.56.687l.713.096c-.113.418-.32.742-.625.971-.306.23-.693.348-1.165.348-.595 0-1.067-.184-1.416-.549-.35-.367-.523-.881-.523-1.539 0-.684.176-1.213.528-1.59.352-.377.81-.566 1.371-.566.547 0 .991.186 1.335.553.345.371.518.891.518 1.561 0 .039-.001.102-.005.182h-3.033c.025.447.151.785.379 1.02.228.236.511.355.851.355.253 0 .469-.066.646-.201.179-.137.321-.348.426-.641zm-2.26-1.107h2.267c-.031-.336-.117-.588-.259-.758-.22-.26-.506-.391-.854-.391-.316 0-.582.104-.798.313-.214.207-.336.486-.356.836zm3.835 2.437v-4.076h.616v.58c.3-.443.731-.664 1.296-.664.246 0 .471.043.678.133.205.088.36.203.463.346.102.143.174.313.214.51.024.129.037.352.037.67v2.502h-.685v-2.473c0-.279-.027-.488-.08-.627-.055-.141-.149-.25-.286-.334-.138-.082-.298-.123-.482-.123-.295 0-.548.092-.764.277-.214.186-.32.541-.32 1.061v2.219h-.687zm6.397-1.806l.699-.059c.034.285.11.516.231.697.121.18.308.328.562.439.255.111.541.166.858.166.281 0 .532-.041.747-.125.217-.086.377-.201.482-.35.105-.146.158-.309.158-.482 0-.178-.052-.334-.153-.465-.104-.131-.273-.244-.506-.332-.15-.061-.481-.15-.995-.275-.514-.125-.874-.242-1.08-.354-.268-.143-.466-.314-.598-.525-.132-.207-.196-.443-.196-.703 0-.283.08-.551.24-.797.16-.25.394-.438.703-.564.308-.129.65-.193 1.025-.193.417 0 .783.068 1.1.201.316.135.561.332.73.594.172.262.264.557.275.887l-.714.055c-.038-.355-.167-.623-.387-.805-.22-.182-.542-.274-.972-.274-.447 0-.773.082-.979.25-.205.164-.307.365-.307.598 0 .201.072.369.218.5.143.131.514.266 1.116.402.599.139 1.013.258 1.238.361.325.15.567.34.724.572.155.23.232.498.232.801 0 .299-.085.58-.256.844-.169.266-.414.471-.734.617-.32.148-.679.223-1.076.223-.507 0-.932-.074-1.273-.225-.344-.148-.611-.369-.805-.668-.194-.299-.296-.636-.307-1.011zm5.142-.233c0-.752.208-1.307.627-1.67.35-.299.776-.451 1.28-.451.558 0 1.015.184 1.369.549.354.365.53.871.53 1.514 0 .523-.076.934-.234 1.234-.156.299-.384.533-.684.697-.3.166-.628.25-.981.25-.569 0-1.03-.184-1.382-.549-.35-.363-.525-.888-.525-1.574zm.713-.002c0 .518.113.904.34 1.162.226.258.511.389.854.389.338 0 .622-.131.848-.389.226-.26.338-.654.338-1.184 0-.5-.112-.881-.34-1.137-.226-.258-.51-.387-.846-.387-.344 0-.629.129-.854.385-.227.257-.34.644-.34 1.161zm6.581 2.041v-.602c-.317.455-.75.686-1.295.686-.239 0-.465-.049-.673-.139-.209-.092-.363-.209-.465-.348-.102-.139-.174-.311-.214-.51-.028-.137-.041-.352-.041-.645v-2.52h.686v2.26c0 .361.014.604.042.729.043.182.136.324.278.428.141.104.316.154.525.154.208 0 .401-.051.585-.158.182-.107.312-.25.389-.434.075-.184.113-.447.113-.797v-2.182h.687v4.076h-.617zm1.681 0v-4.076h.616v.625c.16-.287.306-.479.439-.572.137-.09.284-.137.445-.137.233 0 .47.072.712.217l-.246.635c-.167-.092-.335-.137-.503-.137a.663.663 0 00-.406.135c-.118.092-.204.217-.254.379-.08.244-.118.512-.118.801v2.131h-.685zm5.303-1.5l.672.1c-.073.463-.264.826-.57 1.09-.306.262-.684.395-1.129.395-.56 0-1.007-.182-1.348-.545-.339-.363-.508-.885-.508-1.563 0-.438.071-.82.218-1.15.146-.328.367-.576.666-.74.299-.162.623-.246.974-.246.443 0 .805.113 1.085.336.283.223.464.541.542.953l-.671.098c-.064-.27-.178-.473-.339-.607-.163-.137-.358-.205-.589-.205-.348 0-.631.123-.848.371-.216.246-.325.639-.325 1.172 0 .543.105.938.315 1.184.212.244.486.369.826.369.271 0 .499-.084.682-.248.183-.168.299-.42.347-.764zm4.047.17l.713.096c-.113.418-.322.742-.626.971-.303.23-.692.348-1.165.348-.596 0-1.067-.184-1.416-.549-.35-.367-.523-.881-.523-1.539 0-.684.177-1.213.528-1.59.353-.377.811-.566 1.374-.566.544 0 .989.186 1.334.553.345.371.517.891.517 1.561 0 .039 0 .102-.004.182h-3.035c.025.447.151.785.38 1.02.228.236.511.355.851.355.253 0 .47-.066.647-.201.178-.137.32-.348.425-.641zm-2.261-1.107h2.268c-.03-.336-.118-.588-.259-.758-.221-.26-.504-.391-.854-.391-.315 0-.581.104-.797.313-.216.207-.334.486-.358.836zm6.131 2.437v-5.629h4.061v.658h-3.318v1.734h3.109v.658h-3.109v1.918h3.444v.66h-4.187zm4.861-1.693v-.703h2.144v.703zm6.986-.277l.74.188c-.155.611-.436 1.078-.842 1.398-.403.322-.899.482-1.485.482-.606 0-1.1-.125-1.479-.373-.381-.246-.669-.604-.867-1.072-.197-.469-.297-.973-.297-1.51 0-.586.111-1.098.335-1.535.225-.436.542-.77.955-.996.413-.226.867-.34 1.362-.34.563 0 1.035.143 1.419.43.383.285.65.689.802 1.207l-.729.174c-.13-.412-.32-.711-.568-.896-.247-.189-.56-.283-.935-.283-.432 0-.793.104-1.083.313-.291.209-.494.486-.612.838-.116.352-.176.713-.176 1.086 0 .48.069.9.21 1.258.138.359.354.627.647.805.295.178.614.266.956.266.417 0 .769-.121 1.058-.363.289-.244.485-.603.589-1.077zm1.317-.069c0-.752.209-1.307.627-1.67.35-.299.775-.451 1.278-.451.561 0 1.017.184 1.372.549.353.365.531.871.531 1.514 0 .523-.078.934-.236 1.234-.157.299-.385.533-.685.697-.301.166-.628.25-.982.25-.569 0-1.029-.184-1.38-.549-.35-.363-.525-.888-.525-1.574zm.713-.002c0 .518.114.904.341 1.162.224.258.51.389.852.389.341 0 .623-.131.85-.389.227-.26.34-.654.34-1.184 0-.5-.114-.881-.342-1.137-.227-.258-.51-.387-.848-.387-.342 0-.628.129-.852.385-.226.257-.341.644-.341 1.161zm3.908 2.041v-4.076h.616v.582c.127-.199.298-.361.51-.482.212-.123.454-.184.725-.184.302 0 .549.063.742.189.193.125.328.303.407.527.325-.477.745-.717 1.265-.717.408 0 .72.113.938.336.22.223.327.566.327 1.031v2.793h-.686v-2.559c0-.273-.022-.473-.067-.594-.045-.121-.127-.219-.245-.291-.119-.076-.26-.111-.419-.111-.29 0-.526.094-.719.283-.189.191-.285.494-.285.912v2.361h-.688v-2.64c0-.307-.056-.533-.17-.688-.112-.154-.297-.229-.553-.229-.195 0-.376.049-.541.152-.166.1-.286.25-.36.447-.075.195-.111.48-.111.85v2.107h-.686zm6.543 0v-4.076h.614v.582c.129-.199.297-.361.511-.482.212-.123.453-.184.725-.184.301 0 .549.063.742.189.193.125.329.303.408.527.325-.477.745-.717 1.265-.717.406 0 .719.113.938.336.219.223.327.566.327 1.031v2.793h-.687v-2.559c0-.273-.022-.473-.067-.594-.046-.121-.126-.219-.244-.291-.119-.076-.259-.111-.418-.111-.29 0-.529.094-.72.283-.191.191-.286.494-.286.912v2.361h-.688v-2.64c0-.307-.055-.533-.169-.688-.112-.154-.297-.229-.554-.229-.195 0-.375.049-.542.152-.165.1-.285.25-.36.447-.073.195-.11.48-.11.85v2.107h-.685zm9.334-1.33l.713.096c-.112.418-.32.742-.624.971-.304.23-.693.348-1.165.348-.596 0-1.067-.184-1.418-.549-.349-.367-.521-.881-.521-1.539 0-.684.176-1.213.528-1.59.352-.377.81-.566 1.372-.566.544 0 .989.186 1.336.553.343.371.516.891.516 1.561 0 .039-.001.102-.003.182h-3.035c.026.447.152.785.379 1.02.228.236.511.355.852.355.251 0 .468-.066.647-.201.177-.137.32-.348.423-.641zm-2.26-1.107h2.27c-.03-.336-.118-.588-.261-.758-.219-.26-.504-.391-.852-.391-.318 0-.583.104-.8.313-.215.207-.333.486-.357.836zm3.823 2.437v-4.076h.617v.625c.158-.287.304-.479.438-.572.136-.09.284-.137.445-.137.233 0 .47.072.711.217l-.245.635c-.167-.092-.335-.137-.503-.137-.151 0-.285.045-.403.135-.12.092-.207.217-.258.379-.078.244-.116.512-.116.801v2.131h-.686zm5.305-1.5l.672.1c-.074.463-.266.826-.571 1.09-.307.262-.684.395-1.128.395-.559 0-1.009-.182-1.348-.545-.341-.363-.51-.885-.51-1.563 0-.438.072-.82.219-1.15.146-.328.368-.576.665-.74.299-.162.625-.246.976-.246.441 0 .803.113 1.086.336.282.223.461.541.542.953l-.674.098c-.063-.27-.176-.473-.339-.607-.161-.137-.357-.205-.587-.205-.349 0-.631.123-.849.371-.217.246-.324.639-.324 1.172 0 .543.104.938.315 1.184.211.244.486.369.825.369.273 0 .5-.084.681-.248.184-.168.299-.42.349-.764zm4.045.17l.714.096c-.112.418-.321.742-.625.971-.305.23-.693.348-1.165.348-.596 0-1.068-.184-1.416-.549-.35-.367-.523-.881-.523-1.539 0-.684.175-1.213.527-1.59.354-.377.813-.566 1.374-.566.544 0 .989.186 1.334.553.344.371.518.891.518 1.561 0 .039-.001.102-.005.182h-3.033c.025.447.151.785.378 1.02.228.236.51.355.851.355.253 0 .469-.066.647-.201.176-.137.318-.348.424-.641zm-2.26-1.107h2.269c-.031-.336-.117-.588-.261-.758-.219-.26-.504-.391-.853-.391-.315 0-.582.104-.798.313-.217.207-.335.486-.357.836z" fill="#A8AEB5"/><g transform="translate(0 .001)"><radialGradient gradientUnits="userSpaceOnUse" r="6.4963" cy="4.8452" cx="14.4438" id="a"><stop offset=".0121" stop-color="#ff4d4d"/><stop offset="1" stop-color="#961e23"/></radialGradient><circle r="6.497" cy="6.496" cx="12.321" fill="url(#a)"/></g><g transform="translate(0 .001)"><radialGradient gradientUnits="userSpaceOnUse" r="8.289" cy="10.0249" cx="20.8271" id="b"><stop offset="0" stop-color="#5cb0ff"/><stop offset="1" stop-color="#002c85"/></radialGradient><circle r="8.289" cy="12.619" cx="17.997" fill="url(#b)"/><ellipse ry=".148" rx=".249" cy="8.789" cx="22.197" fill="#FFF" opacity=".5" transform="rotate(45 22.1968 8.7885) scale(.99999)"/></g><g transform="translate(0 .001)"><radialGradient gradientUnits="userSpaceOnUse" fy="17.556" fx="13.3508" r="10.693" cy="17.5547" cx="13.4458" id="c"><stop offset="0" stop-color="#61ff8a"/><stop offset=".1326" stop-color="#5ef882"/><stop offset=".3432" stop-color="#57e36b"/><stop offset=".6056" stop-color="#4bc245"/><stop offset=".9067" stop-color="#3a9411"/><stop offset="1" stop-color="#348500"/></radialGradient><circle r="10.379" cy="20.386" cx="10.379" fill="url(#c)"/><ellipse ry=".187" rx=".311" cy="15.588" cx="15.639" fill="#FFF" opacity=".5" transform="rotate(45.065 15.6384 15.5878) scale(.99999)"/></g></svg>