<?xml version="1.0" encoding="UTF-8"?><svg xmlns="http://www.w3.org/2000/svg" xmlns:xlink="http://www.w3.org/1999/xlink" viewBox="0 0 48 48" version="1.1"><g id="surface1"><path d="M24 46C13.5 46 5 37.602 5 27.398 5 19.301 10.3 12.102 18.2 9.7c1.698-.597 3-4.3 3.3-5.398L22 2l1.3 1.898c1.098 1.704 3.2 5 4.598 5.204C36.602 10.898 43 18.602 43 27.398 43 37.602 34.5 46 24 46z" fill="#039BE5"/><path d="M29.5 35.2c.602 0 1.3 0 1.8.3s.802 1 .9 1.398c.198.403 0 .602-.302.801-.296.2-.296.102-.597-.398s-.5-1-1.903-1c-1.398 0-1.796.5-2.5 1-.699.5-.898.699-1.097.398-.2-.3-.2-.597.3-1 .399-.398 1.098-1 1.797-1.3.602-.297 1-.2 1.602-.2zm-6.602 4.402c.801.597 2 1.097 4.5 1.097S31.7 40 32.5 39.4c.398-.297.5 0 .602.101 0 .2.097.398-.204.7-.199.198-2 1.402-4.199 1.6-2.097.2-5 .302-6.8-1.198-.297-.301-.2-.704 0-.801.203-.2.402-.301.601-.301.2 0 .3 0 .398.102zm-8.898-8C14 28.699 16.898 26 20.602 26c4.597 0 7.898 4.3 10.199 4.2 2 0 5.8-3.7 7.699-3.7 2 0 2.5 1.898 2.5 3.102 0 1.097-.398 3.199-1.398 4.5-1 1.296-1.5 1.796-2.704 1.699-1.398-.102-4.296-4.2-6.097-4.301C28.5 31.398 23.5 36 19.6 36c-2.402 0-3.101-.3-3.902-.8-1.097-.802-1.699-2-1.699-3.598z" fill="#FFF"/></g><metadata><rdf:RDF xmlns:rdf="http://www.w3.org/1999/02/22-rdf-syntax-ns#" xmlns:rdfs="http://www.w3.org/2000/01/rdf-schema#" xmlns:dc="http://purl.org/dc/elements/1.1/"><rdf:Description about="https://iconscout.com/legal#licenses" dc:title="drupal" dc:description="drupal" dc:publisher="Iconscout" dc:date="2017-12-15" dc:format="image/svg+xml" dc:language="en"><dc:creator><rdf:Bag><rdf:li>Icons8</rdf:li></rdf:Bag></dc:creator></rdf:Description></rdf:RDF></metadata></svg>